<svg width="256" height="256" viewBox="0 0 256 256" fill="none" xmlns="http://www.w3.org/2000/svg">
<path d="M6 116L48 116.063L2 2C2 2 84.6728 2 128 2C197.588 2 254 58.4121 254 128C254 197.588 197.588 254 128 254C114.573 254 60.3579 254 60.3579 254L6 116Z" fill="#F72A30"/>
<path d="M130.048 87.4727V114.519C130.048 115.337 130.767 116 131.646 116H168.376C169.255 116 169.974 116.663 169.974 117.481V144.567C169.974 145.386 169.255 146.049 168.376 146.049H131.626C130.747 146.049 130.028 146.711 130.028 147.53V204.519C130.028 205.337 129.309 206 128.43 206H99.5984C98.7193 206 98 205.337 98 204.519V57.4812C98 56.6627 98.7193 56 99.5984 56H176.402C177.281 56 178 56.6627 178 57.4812V84.5102C178 85.3288 177.281 85.9915 176.402 85.9915H131.646C130.747 85.9915 130.048 86.6542 130.048 87.4727Z" fill="white"/>
<path d="M130.048 87.4727V114.519C130.048 115.337 130.767 116 131.646 116H168.376C169.255 116 169.974 116.663 169.974 117.481V144.567C169.974 145.386 169.255 146.049 168.376 146.049H131.626C130.747 146.049 130.028 146.711 130.028 147.53V204.519C130.028 205.337 129.309 206 128.43 206H99.5984C98.7193 206 98 205.337 98 204.519V57.4812C98 56.6627 98.7193 56 99.5984 56H176.402C177.281 56 178 56.6627 178 57.4812V84.5102C178 85.3288 177.281 85.9915 176.402 85.9915H131.646C130.747 85.9915 130.048 86.6542 130.048 87.4727Z" fill="url(#paint0_linear)"/>
<defs>
<linearGradient id="paint0_linear" x1="138" y1="56" x2="138" y2="206" gradientUnits="userSpaceOnUse">
<stop stop-color="white"/>
<stop offset="1" stop-color="white" stop-opacity="0"/>
</linearGradient>
</defs>
</svg>
